<?xml version="1.0" encoding="UTF-8" standalone="no"?>
<!-- Created with Inkscape (http://www.inkscape.org/) -->

<svg
   width="214.44533mm"
   height="186.38704mm"
   viewBox="0 0 214.44533 186.38704"
   version="1.1"
   id="svg1"
   xml:space="preserve"
   inkscape:version="1.4 (e7c3feb100, 2024-10-09)"
   sodipodi:docname="banner.svg"
   xmlns:inkscape="http://www.inkscape.org/namespaces/inkscape"
   xmlns:sodipodi="http://sodipodi.sourceforge.net/DTD/sodipodi-0.dtd"
   xmlns="http://www.w3.org/2000/svg"
   xmlns:svg="http://www.w3.org/2000/svg"><sodipodi:namedview
     id="namedview1"
     pagecolor="#ffffff"
     bordercolor="#000000"
     borderopacity="0.25"
     inkscape:showpageshadow="2"
     inkscape:pageopacity="0.0"
     inkscape:pagecheckerboard="0"
     inkscape:deskcolor="#d1d1d1"
     inkscape:document-units="mm"
     inkscape:zoom="1.1866162"
     inkscape:cx="393.13471"
     inkscape:cy="289.89998"
     inkscape:window-width="3840"
     inkscape:window-height="1534"
     inkscape:window-x="0"
     inkscape:window-y="0"
     inkscape:window-maximized="1"
     inkscape:current-layer="layer1" /><defs
     id="defs1" /><g
     inkscape:label="Layer 1"
     inkscape:groupmode="layer"
     id="layer1"
     transform="translate(4.8947849,-104.68179)"><path
       style="fill:#e36d4c;fill-opacity:1;stroke-width:0.939694"
       d="m 90.828612,284.8044 c -4.084688,-1.08632 -6.812092,-2.40387 -13.301558,-6.42569 -7.807436,-4.83863 -12.447173,-7.68392 -21.879197,-13.41729 -13.46225,-8.18318 -24.874054,-15.28915 -25.54645,-15.90742 -1.376342,-1.26554 -0.206827,-3.2249 2.114514,-3.54256 8.477684,-1.16013 15.362826,-3.93768 21.201714,-8.55305 1.481352,-1.17095 2.123051,-1.41054 2.636526,-0.98439 2.102938,1.74529 -6.564536,8.217 -15.772655,11.77693 -1.180698,0.45646 -2.175061,0.92407 -2.209697,1.03912 -0.0599,0.19898 4.538639,2.93544 18.446243,10.97688 7.907807,4.57232 16.520962,9.67179 24.116843,14.27848 9.948938,6.03377 12.367765,7.07247 15.899275,6.82753 4.75722,-0.32997 9.83792,-2.5635 15.71553,-6.90872 5.03611,-3.7231 8.89628,-7.72414 13.77147,-14.27401 4.25992,-5.72325 6.45829,-9.05226 15.59758,-23.61958 5.15836,-8.22202 7.12674,-10.95247 9.38063,-13.0124 1.78564,-1.63196 3.09128,-2.38911 4.94276,-2.86634 2.67446,-0.68935 3.75893,-0.10173 -13.02612,-7.05835 -16.41756,-6.80432 -18.1493,-7.47641 -20.96181,-8.13519 -3.52777,-0.82631 -3.42275,-0.7859 -3.24503,-1.24905 0.21562,-0.5619 1.31444,-1.06675 2.72386,-1.25148 1.71685,-0.22503 3.70016,0.29493 9.60314,2.51756 7.31512,2.75436 32.43228,12.85489 34.25693,13.77598 3.81294,1.92476 6.01819,5.48075 6.02915,9.72207 0.008,2.89966 -0.78617,5.29736 -2.33881,7.06573 -1.49469,1.70235 -3.15145,2.04036 -5.3486,1.09122 -4.87634,-2.10652 -13.63688,-5.69661 -13.90087,-5.69661 -0.17748,0 -2.36027,3.21661 -4.85066,7.14803 -2.49037,3.93142 -6.1234,9.66538 -8.07338,12.74214 -8.43462,13.30853 -13.85366,20.02097 -20.50479,25.3988 -9.68739,7.83286 -17.850594,10.56978 -25.476538,8.54166 z m 75.055878,-52.53036 c 0.88612,-1.71357 1.00219,-4.61279 0.25649,-6.40678 -1.37128,-3.29899 -5.82529,-3.83701 -10.17203,-1.22874 -1.46705,0.8803 -3.95188,3.08782 -3.72786,3.31182 0.17966,0.17966 12.6423,4.97373 12.98284,4.99417 0.16741,0.0101 0.46467,-0.29166 0.66056,-0.67047 z m -69.968689,38.78703 c -2.465924,-1.29577 -7.570467,-4.32863 -9.374655,-5.56995 -1.924706,-1.32423 -1.929862,-1.35022 -1.915766,-9.65463 0.01432,-8.43643 0.04791,-8.60353 2.01907,-10.04206 3.035731,-2.21545 10.219505,-6.1649 12.039823,-6.61917 1.687517,-0.42115 2.736727,-0.0505 7.559227,2.6707 6.68676,3.77309 7.52835,4.36408 8.15902,5.72932 0.52026,1.12625 0.54182,1.47126 0.51615,8.26121 -0.0315,8.31766 -0.0625,8.4601 -2.13315,9.77673 -0.72646,0.46194 -3.60897,2.11142 -6.40558,3.66552 -4.66073,2.59002 -5.21093,2.83368 -6.598286,2.92202 -1.419407,0.0904 -1.659898,0.0195 -3.865853,-1.13969 z m 9.706129,-4.64666 c 4.98348,-2.87908 5.33387,-3.12956 5.89445,-4.2136 0.4229,-0.8178 0.46991,-1.8486 0.38292,-8.39641 -0.0606,-4.56283 -0.0725,-4.65556 -0.69103,-5.39063 -0.89427,-1.06278 -10.52631,-6.00315 -11.704103,-6.00315 -1.015789,0 -10.49564,4.89341 -11.534768,5.95413 l -0.621569,0.63449 0.01198,6.21568 c 0.01517,7.8698 -0.07148,7.66518 4.214685,9.95265 1.230704,0.65681 3.244585,1.77619 4.47529,2.4875 2.805824,1.62169 2.781151,1.61235 3.978035,1.50546 0.71066,-0.0634 2.3073,-0.84725 5.59411,-2.74612 z m -15.411428,-4.05184 c -1.030186,-0.51669 -1.555655,-1.41685 -1.38228,-2.36793 0.06919,-0.37956 0.555143,-1.33055 1.079896,-2.11334 0.524754,-0.78278 2.279703,-3.65147 3.899887,-6.37485 3.317525,-5.57646 4.386277,-6.85818 5.718638,-6.85818 1.336287,0 2.066737,0.89112 4.993047,6.09136 1.46204,2.59816 3.20321,5.6397 3.86927,6.759 1.40113,2.35457 1.55272,3.39996 0.62008,4.27613 -0.88085,0.82753 -2.85399,1.0127 -10.845924,1.01791 -6.255726,0.004 -7.18742,-0.0463 -7.952614,-0.4301 z m 15.473588,-2.40225 c 0.2393,-0.10945 0.4351,-0.35972 0.4351,-0.55616 0,-0.96813 -6.293498,-11.41003 -6.718642,-11.14727 -0.515916,0.31885 -6.980941,11.38229 -6.850296,11.72274 0.124919,0.32554 0.987286,0.36285 6.421518,0.27786 3.45248,-0.054 6.47302,-0.18773 6.71232,-0.29717 z m -46.754354,-4.6708 c -0.464758,-0.46477 -0.359253,-1.54699 0.441553,-4.52929 1.033774,-3.84991 1.69263,-7.94393 1.989143,-12.36024 l 0.253462,-3.77511 1.347773,-1.41299 c 1.769845,-1.8555 3.004871,-3.80101 5.287601,-8.32946 1.03398,-2.05119 2.94529,-5.72973 4.247352,-8.17454 l 2.367387,-4.44511 -0.284554,-2.31546 c -0.604901,-4.92219 -0.295152,-13.05544 0.726749,-19.08258 1.565014,-9.23042 4.429679,-16.12388 10.505402,-25.27994 2.131757,-3.21253 5.991748,-8.08051 6.066458,-7.65064 0.03022,0.17388 0.289679,2.21814 0.57658,4.5428 0.458224,3.71285 1.451604,10.14117 1.873012,12.12058 0.363831,1.70896 0.479776,0.17959 0.490089,-6.46454 0.009,-5.79646 0.0943,-7.57084 0.451224,-9.38545 1.173467,-5.96599 4.513048,-10.9992 12.372503,-18.64704 3.44761,-3.35479 7.72017,-7.02705 9.78851,-8.41322 l 0.99275,-0.66533 0.16874,0.63092 c 0.0928,0.34701 0.003,1.66245 -0.19977,2.9232 -0.20268,1.26075 -0.41726,4.47398 -0.47685,7.14051 l -0.10835,4.84823 0.99011,-3.72941 c 3.12891,-11.78548 5.62178,-15.70177 13.17981,-20.7054 7.14632,-4.73106 20.23597,-9.99952 28.83718,-11.60668 3.10194,-0.5796 4.00363,-0.0647 3.61306,2.06332 -0.28518,1.55389 -2.3765,7.74239 -3.54253,10.4829 -3.85822,9.06792 -8.26065,15.23998 -13.25249,18.57958 -2.57566,1.72314 -7.85295,4.32947 -10.9469,5.40641 -1.41466,0.4924 -2.63319,0.95759 -2.70786,1.03373 -0.17002,0.17341 3.71952,-0.0983 6.20424,-0.43332 2.61702,-0.3529 6.12972,-1.30741 8.10135,-2.20139 0.92047,-0.41736 1.71655,-0.71588 1.76906,-0.66337 0.21332,0.21331 -1.07372,3.44278 -2.4737,6.20705 -1.62879,3.21607 -4.64661,7.87654 -7.30402,11.27974 -4.56208,5.8424 -8.84936,9.29036 -16.02922,12.8912 -3.2193,1.61454 -7.79257,3.45473 -9.65299,3.88417 -1.7042,0.39338 -1.60059,0.7418 0.16738,0.56286 7.1836,-0.72703 11.01213,-1.66185 16.43133,-4.01206 0.41406,-0.17957 -0.34136,1.33056 -2.71152,5.4205 -2.34232,4.0419 -4.02676,6.45658 -6.8581,9.83121 -4.01943,4.79069 -5.93395,6.32569 -11.56223,9.27019 -5.39737,2.82369 -8.79178,4.03179 -12.382776,4.40712 -0.825873,0.0864 -1.501587,0.24285 -1.501587,0.34784 0,0.52733 9.113573,0.58445 11.903623,0.0746 3.99144,-0.72938 -9.021745,7.30471 -15.92694,9.83298 -2.707088,0.99118 -6.696346,2.01226 -7.880513,2.01708 -1.768551,0.008 -1.950494,0.25334 -3.672845,4.96888 -2.746107,7.51843 -3.528049,10.62001 -3.746344,14.85992 l -0.144237,2.8015 -2.884205,2.28341 c -2.775651,2.19747 -9.494387,8.70209 -12.591512,12.19024 -1.538724,1.73299 -1.794759,1.88651 -2.301388,1.37989 z M 70.18557,231.96828 c 1.706396,-2.57301 3.855019,-6.45186 6.472965,-11.68549 0.923429,-1.84605 2.79751,-5.42629 4.164623,-7.95606 13.903808,-25.72837 27.105132,-44.87837 45.162502,-65.51329 6.28568,-7.1829 9.83041,-10.96244 21.77764,-23.22025 2.05169,-2.10503 3.56253,-3.73456 3.35742,-3.62117 -0.68742,0.38 -7.61616,6.04651 -10.84889,8.87252 -8.4019,7.34483 -20.31375,20.17211 -30.25123,32.57606 -2.05428,2.56414 -3.785,4.61212 -3.84605,4.55107 -0.26312,-0.26311 -0.80219,-5.8325 -0.95893,-9.90698 -0.12286,-3.19405 -0.24551,-4.34792 -0.44132,-4.15214 -0.18352,0.18346 -0.28133,2.91294 -0.30256,8.44207 l -0.0314,8.17095 -2.67364,3.68863 c -8.258414,11.39357 -16.852878,25.41455 -23.738791,38.72738 -3.557332,6.87753 -11.440492,24.06845 -11.440492,24.94843 0,0.70305 1.915831,-1.38509 3.598114,-3.92173 z m 13.067424,-40.73365 c -0.761014,-6.96457 -1.004242,-7.93156 -0.885895,-3.522 0.09155,3.41107 1.0775,10.01954 1.322987,8.86748 0.05345,-0.25081 -0.143246,-2.65629 -0.437092,-5.34548 z m 20.541686,1.69416 c 1.62034,-0.27624 3.96019,-0.77152 5.19967,-1.10062 2.34309,-0.62213 6.69581,-2.38099 7.17013,-2.89732 0.20642,-0.2247 0.15722,-0.25594 -0.20231,-0.12847 -0.26128,0.0926 -3.72963,1.06265 -7.70745,2.15558 -9.621266,2.6435 -8.873558,2.41657 -8.06514,2.44772 0.36247,0.0139 1.98475,-0.20065 3.6051,-0.47689 z m 23.2092,-30.98435 c 3.02536,-0.5024 5.3096,-1.09358 7.95607,-2.05906 2.17622,-0.79393 4.86747,-2.19596 4.64407,-2.41937 -0.0694,-0.0695 -0.33157,-0.0194 -0.58258,0.11119 -0.25102,0.13056 -3.81286,1.18887 -7.91522,2.35182 -9.81967,2.7837 -9.54494,2.69477 -7.83175,2.53511 0.75209,-0.0701 2.43033,-0.30395 3.72941,-0.51969 z m -3.48079,80.61652 c -0.88884,-0.31732 -2.95866,-1.19122 -4.5996,-1.94199 -13.58949,-6.21753 -25.113404,-11.40649 -26.351468,-11.86546 -0.818809,-0.30355 -1.629956,-0.66911 -1.802548,-0.81235 -0.749851,-0.62232 -0.03732,-1.93994 1.049067,-1.93994 0.582903,0 6.938384,2.64205 15.543789,6.46175 2.52977,1.12289 7.54726,3.3215 11.14995,4.88578 8.66035,3.76029 8.66793,3.76404 8.82687,4.37186 0.39391,1.50629 -1.05623,1.82563 -3.81606,0.84035 z m -3.48077,-11.4734 c -6.2219,-2.67101 -13.21455,-5.64358 -15.53921,-6.60569 -2.32466,-0.96213 -4.48525,-1.91599 -4.801307,-2.11971 -0.731969,-0.47181 -0.636227,-1.32047 0.201703,-1.78794 0.568474,-0.31714 0.876434,-0.25021 3.605094,0.78344 1.64094,0.6216 7.51476,3.02142 13.05293,5.33292 5.53817,2.31151 11.39551,4.74424 13.01629,5.40608 3.29527,1.34561 3.80597,1.84655 3.12447,3.06476 -0.20325,0.36332 -0.58957,0.68802 -0.85849,0.72155 -0.26893,0.0335 -5.57959,-2.1244 -11.80148,-4.79541 z m -74.554462,2.04017 c -0.195058,-0.23503 -0.278845,-4.76179 -0.286209,-15.46301 -0.0098,-14.18294 0.01729,-15.15783 0.431823,-15.56415 0.803593,-0.78765 1.710463,-0.83527 2.418742,-0.12699 l 0.63408,0.63408 v 15.01472 c 0,14.23025 -0.02376,15.0362 -0.454675,15.42619 -0.550415,0.49812 -2.352898,0.55012 -2.743761,0.0791 z m -7.631486,-4.24712 c -0.462659,-0.33817 -0.485315,-0.78579 -0.547839,-10.82352 l -0.06522,-10.47076 0.613331,-0.61333 c 0.750332,-0.75033 2.103594,-0.82953 2.710731,-0.15866 0.369301,0.40807 0.411475,1.53814 0.411475,11.02538 0,9.92498 -0.02778,10.59584 -0.454674,10.98218 -0.557334,0.50438 -2.014219,0.53644 -2.667802,0.0587 z m 95.860438,-1.98278 c -9.14553,-3.55285 -25.47169,-10.23643 -25.97835,-10.63498 -0.78082,-0.61419 -0.79931,-1.32403 -0.0473,-1.81676 0.51753,-0.3391 0.7124,-0.3383 1.87746,0.008 1.84269,0.54722 8.29817,3.02004 17.68388,6.77396 11.07946,4.43135 10.9396,4.36596 10.9396,5.11499 0,1.58762 -1.37761,1.75849 -4.47529,0.5551 z m -80.286154,-1.87068 c -0.686327,-0.68632 -0.81071,-2.28621 -0.720952,-9.27338 0.08839,-6.88084 0.121219,-7.00728 1.81933,-7.00728 1.671378,0 1.655834,-0.0788 1.643558,8.33228 -0.01083,7.41636 -0.02081,7.56299 -0.544053,7.9901 -0.698015,0.56978 -1.60358,0.55259 -2.197883,-0.0417 z m -23.286348,-1.13592 -0.618222,-0.61821 0.04409,-5.5353 c 0.02424,-3.04442 0.132772,-5.77607 0.241164,-6.07035 0.114583,-0.31108 0.579146,-0.66114 1.109868,-0.83629 0.804699,-0.26557 0.990546,-0.24322 1.56934,0.18875 l 0.656545,0.48999 0.06897,6.06472 c 0.06751,5.93552 0.05765,6.07399 -0.462642,6.49982 -0.766906,0.62767 -1.876185,0.54981 -2.609119,-0.18313 z m -7.401027,-3.0686 c -0.323455,-0.35742 -0.411475,-0.97146 -0.411475,-2.87051 0,-2.23347 0.04607,-2.46192 0.610267,-3.02611 0.335647,-0.33565 0.844203,-0.61026 1.130124,-0.61026 0.285921,0 0.794477,0.27461 1.130124,0.61026 0.562694,0.56269 0.610267,0.79527 0.610267,2.98353 0,2.04176 -0.06946,2.44271 -0.497255,2.87051 -0.634883,0.63488 -2.015343,0.65774 -2.572052,0.0426 z m 37.770566,-0.18465 c -0.304956,-0.30496 -0.3907,-0.95664 -0.3907,-2.96943 0,-2.38294 0.04196,-2.60811 0.552576,-2.96577 0.66895,-0.46855 1.928016,-0.5035 2.520899,-0.07 0.366879,0.26827 0.432758,0.7317 0.428042,3.01108 -0.0035,1.66073 -0.115519,2.82648 -0.292225,3.0394 -0.396309,0.47752 -2.326794,0.44649 -2.818592,-0.0453 z m 110.342683,-6.67941 c -0.96944,-0.42192 -1.95067,-1.69812 -2.3061,-2.9993 -0.18411,-0.674 -0.2721,-6.50115 -0.27304,-18.08124 l -9.4e-4,-17.08674 0.80804,-0.41617 c 2.40525,-1.23882 3.67125,-3.15774 3.66179,-5.55031 -0.007,-1.74009 -0.61795,-3.10532 -1.9122,-4.27216 -1.27098,-1.14587 -2.48125,-1.54288 -4.30188,-1.41119 -2.49786,0.18067 -4.3802,1.92207 -5.0054,4.63059 -0.54382,2.35594 0.98466,5.35486 3.24983,6.37632 l 1.01766,0.45889 -0.0642,13.9466 -0.0642,13.9466 -1.42313,0.0743 c -2.36357,0.12352 -2.4306,0.0297 -2.4306,-3.40229 0,-2.83185 -0.0254,-2.97233 -0.70466,-3.90712 -1.27016,-1.74779 -3.22259,-3.72928 -5.24158,-5.31957 l -1.98455,-1.56318 0.14245,-1.52543 c 0.48455,-5.18889 -5.38377,-8.33205 -9.17476,-4.91414 -1.33516,1.20376 -1.92026,2.5337 -1.92711,4.38025 -0.0122,3.29627 2.49764,5.86729 5.71297,5.85224 0.9068,-0.005 2.809,-0.75266 3.49815,-1.37632 0.35567,-0.32188 0.60033,-0.18963 2.2421,1.21195 1.01359,0.8653 2.54215,2.33687 3.39681,3.27016 l 1.55391,1.69689 v 2.56588 c 0,2.35192 -0.0435,2.58917 -0.52197,2.84523 -0.862,0.46132 -12.40387,0.17434 -14.25319,-0.3544 -2.77148,-0.79239 -4.63242,-1.86429 -6.49003,-3.73824 -1.97059,-1.98794 -3.15593,-4.0272 -3.71196,-6.38607 -0.48799,-2.07028 -0.48814,-5.92873 -3e-4,-7.81854 1.18352,-4.58476 4.28837,-8.39227 8.56805,-10.50709 l 1.86471,-0.92145 0.15396,-1.98821 c 0.26642,-3.44036 1.07391,-5.51816 2.98808,-7.68875 1.90915,-2.16491 4.31933,-3.40628 7.73774,-3.98533 0.8393,-0.14217 1.01071,-0.30897 1.67994,-1.6347 1.00254,-1.98601 3.04007,-3.97252 5.12971,-5.00125 1.5971,-0.78625 1.842,-0.83348 4.32175,-0.83348 2.54029,0 2.69268,0.0316 4.53067,0.94 1.48596,0.73441 2.23405,1.31367 3.42035,2.64847 l 1.5184,1.70847 2.40949,-0.13168 c 2.86662,-0.15669 4.66498,0.16686 6.76763,1.21757 1.79137,0.89516 4.1268,2.98349 5.17315,4.62579 0.99875,1.5676 1.78125,3.9842 1.78125,5.50107 0,1.45856 0.34801,2.51029 0.83064,2.51029 0.88159,0 4.07907,1.92445 5.63287,3.39024 2.96044,2.79272 4.22746,5.95331 4.22746,10.54536 0,4.70337 -1.48468,8.82657 -4.23816,11.77004 -1.30705,1.39725 -3.9041,3.13513 -4.68506,3.13513 -0.1518,0 -0.27599,-0.34301 -0.27599,-0.76222 0,-0.94139 -0.31744,-1.55137 -1.43712,-2.76153 -2.20704,-2.38538 -5.53422,-2.62993 -7.95946,-0.585 -1.26562,1.06715 -1.86786,2.46501 -1.91183,4.43755 l -0.0378,1.69625 -1.58103,1.61735 c -0.86957,0.88954 -2.23254,2.11868 -3.02883,2.73142 l -1.44781,1.11406 v -7.69965 -7.69965 l 0.96821,-1.20331 c 0.53252,-0.66181 1.98807,-2.20899 3.23456,-3.43816 1.98682,-1.95921 2.31972,-2.19621 2.69905,-1.92155 2.6183,1.8959 5.77609,1.66225 7.73827,-0.57255 1.10231,-1.25546 1.52069,-2.31433 1.52069,-3.84868 0,-1.53436 -0.41838,-2.59321 -1.52069,-3.84868 -3.49018,-3.97509 -10.11453,-1.10947 -9.60487,4.15497 l 0.12681,1.30979 -3.08158,3.06783 c -1.69485,1.68732 -3.41572,3.55354 -3.82414,4.14715 l -0.74258,1.07931 v 10.95696 c 0,10.62545 -0.015,10.972 -0.49726,11.45421 -0.57307,0.57307 -1.52923,0.6238 -2.64064,0.14008 z m 5.92252,-0.68706 c -0.32142,-0.32143 -0.39064,-1.16087 -0.14789,-1.79348 0.0828,-0.21567 1.11767,-1.16723 2.29981,-2.11459 1.18213,-0.94736 2.76086,-2.34641 3.50829,-3.109 0.74743,-0.76259 1.47466,-1.383 1.61607,-1.37868 0.33378,0.0102 1.62457,1.14589 1.62457,1.42936 0,1.12053 -4.86316,5.79243 -7.07575,6.79747 -1.19196,0.54145 -1.4305,0.56352 -1.8251,0.16892 z m 9.44758,-10.01621 c -0.91484,-0.76979 -1.41802,-2.49836 -1.02786,-3.53101 0.37527,-0.99323 1.42448,-2.01582 2.25561,-2.19837 1.5879,-0.34876 3.58988,1.02972 3.85334,2.65325 0.44703,2.75473 -2.9901,4.83559 -5.08109,3.07613 z M 67.449868,197.64721 c -0.816189,-0.82625 -2.099333,-1.80522 -2.85143,-2.17549 l -1.367451,-0.67322 -23.992528,-0.0271 c -21.490587,-0.0243 -24.153324,-0.07 -25.534483,-0.43881 -5.5752912,-1.48885 -9.4521499,-5.12634 -11.4305126,-10.72477 l -0.7020321,-1.98664 v -23.49524 -23.49527 l 0.6917541,-2.04235 C 3.9585143,127.583 8.0765497,123.48967 13.259298,121.6582 l 1.986632,-0.70203 h 23.495274 23.495275 l 1.986631,0.70203 c 5.147346,1.81896 9.064222,5.71179 10.747486,10.6815 l 0.691754,2.04235 0.06977,18.30052 0.06977,18.30052 -1.379184,3.8273 c -2.942195,8.16473 -4.764496,15.84613 -5.02205,21.16906 -0.08437,1.7435 -0.223903,3.16999 -0.310096,3.16999 -0.08619,0 -0.824504,-0.67602 -1.640694,-1.50227 z M 53.809551,176.88272 c 4.16985,-1.20838 7.923867,-3.42057 9.411855,-5.54629 0.739119,-1.0559 0.754081,-1.13608 0.691553,-3.70613 -0.165726,-6.81173 -2.129635,-14.54929 -5.20574,-20.50996 -1.459677,-2.82846 -2.401264,-3.63578 -5.233243,-4.48699 -4.727527,-1.42096 -7.160586,-1.75012 -7.445639,-1.00728 -0.275179,0.7171 0.272413,1.14921 2.797561,2.20754 2.578746,1.0808 5.221729,2.47887 5.481866,2.89979 0.08343,0.13499 -0.219843,0.0533 -0.673936,-0.18151 -0.454091,-0.23482 -1.781022,-0.75078 -2.948735,-1.14658 -8.029118,-2.72146 -19.022641,-2.33476 -26.602132,0.93573 -0.828085,0.35731 -1.179729,0.43806 -0.880959,0.20228 0.712707,-0.56245 3.931285,-2.15395 5.967054,-2.95056 0.957214,-0.37458 1.904944,-0.83878 2.106065,-1.03159 0.320249,-0.30701 0.283349,-0.43289 -0.297031,-1.01326 l -0.662707,-0.66271 -2.451206,0.6424 c -3.784467,0.99182 -6.533435,2.13062 -7.437574,3.08115 -1.530061,1.60856 -3.962844,7.23963 -5.173209,11.97424 -1.365155,5.3401 -2.054685,12.33325 -1.377312,13.96857 1.084638,2.61855 8.266297,6.49607 12.166183,6.56878 l 1.375147,0.0257 0.821238,-1.22042 c 0.451681,-0.67123 0.782244,-1.3374 0.734584,-1.48037 -0.04766,-0.14299 -0.918626,-0.67974 -1.935479,-1.19279 -1.740327,-0.87809 -3.977183,-2.7608 -3.658608,-3.07938 0.07966,-0.0797 0.911506,0.2403 1.848549,0.71102 7.927834,3.98252 18.116356,3.96649 27.416723,-0.0431 1.241656,-0.53531 2.257556,-0.88936 2.257556,-0.78677 0,0.51632 -2.726353,2.63549 -4.364105,3.39218 -1.018367,0.47052 -1.851576,0.97133 -1.851576,1.11293 0,0.36127 0.455112,1.20349 1.162673,2.15161 0.736479,0.98687 1.094522,1.0024 3.960584,0.17185 z M 29.417683,166.46505 c -2.673874,-0.96062 -3.879852,-4.55732 -2.512619,-7.49361 0.673002,-1.44534 1.608312,-2.21533 3.097425,-2.5499 2.541983,-0.57115 4.536328,0.84241 5.262178,3.72974 0.971926,3.86619 -2.431157,7.54095 -5.846984,6.31377 z m 15.950728,2.3e-4 c -2.011667,-0.71726 -3.135505,-2.50322 -3.135505,-4.98283 0,-0.91661 0.17597,-1.87916 0.456416,-2.49656 0.905769,-1.99404 3.067176,-3.12141 4.991159,-2.60334 2.163295,0.58251 3.481165,2.51319 3.481165,5.0999 0,2.55542 -1.305911,4.50005 -3.415425,5.08592 -1.145131,0.31804 -1.203834,0.31549 -2.37781,-0.10309 z m 101.466619,23.59305 c -1.92006,-1.04181 -1.88826,-4.44657 0.0508,-5.44933 0.40113,-0.20744 1.19558,-0.37716 1.76544,-0.37716 0.87205,0 1.18893,0.15284 2.00135,0.96527 0.77033,0.77031 0.96527,1.1494 0.96527,1.87704 0,2.58605 -2.56605,4.18705 -4.78295,2.98418 z m 38.91193,-5.69784 c -1.64924,-0.71697 -2.28666,-2.94469 -1.30382,-4.55674 0.48919,-0.80236 1.76343,-1.53896 2.66227,-1.53896 1.34376,0 3.04978,1.78485 3.04978,3.1907 0,1.13248 -0.78153,2.31905 -1.84584,2.80244 -1.20755,0.54844 -1.50897,0.56051 -2.56239,0.10256 z m -20.35472,-11.78852 c -1.07083,-0.65299 -1.68524,-2.23505 -1.35061,-3.47775 0.35746,-1.32754 1.77361,-2.51491 2.99947,-2.51491 0.90265,0 2.26197,0.78753 2.75509,1.59618 1.70657,2.79858 -1.60419,6.10373 -4.40395,4.39648 z"
       id="path1"
       inkscape:export-filename="banner.png"
       inkscape:export-xdpi="96"
       inkscape:export-ydpi="96" /></g></svg>
